<?xml version="1.0" encoding="utf-8"?>
<!-- Generator: Adobe Illustrator 16.0.4, SVG Export Plug-In . SVG Version: 6.00 Build 0)  -->
<!DOCTYPE svg PUBLIC "-//W3C//DTD SVG 1.1//EN" "http://www.w3.org/Graphics/SVG/1.1/DTD/svg11.dtd">
<svg version="1.1" id="Layer_1" xmlns="http://www.w3.org/2000/svg" xmlns:xlink="http://www.w3.org/1999/xlink" x="0px" y="0px"
	 width="80px" height="80px" viewBox="0 0 80 80" enable-background="new 0 0 80 80" xml:space="preserve">
<path d="M68.055,60.593L52.494,45.027c2.223-3.567,3.434-7.682,3.434-11.99c0-6.078-2.365-11.792-6.662-16.09
	c-4.301-4.299-10.016-6.666-16.093-6.666s-11.793,2.367-16.092,6.666c-8.871,8.872-8.871,23.308,0,32.184
	c4.298,4.294,10.014,6.662,16.092,6.662c4.311,0,8.423-1.213,11.992-3.436l15.564,15.564c2.024,2.021,5.305,2.021,7.326,0
	C70.078,65.898,70.078,62.615,68.055,60.593z M21.171,45.039c-6.616-6.618-6.616-17.385,0-24.004
	c3.208-3.205,7.469-4.971,12.001-4.971s8.794,1.766,12.001,4.971c3.206,3.207,4.972,7.469,4.972,12.002
	c0,4.533-1.766,8.795-4.972,12.002c-3.207,3.203-7.469,4.971-12.001,4.971S24.378,48.242,21.171,45.039z"/>
</svg>
